<?xml version="1.0" encoding="utf-8"?>
<!-- Generator: Adobe Illustrator 16.0.0, SVG Export Plug-In . SVG Version: 6.00 Build 0)  -->
<!DOCTYPE svg PUBLIC "-//W3C//DTD SVG 1.1//EN" "http://www.w3.org/Graphics/SVG/1.1/DTD/svg11.dtd">
<svg version="1.1" id="Layer_1" xmlns="http://www.w3.org/2000/svg" xmlns:xlink="http://www.w3.org/1999/xlink" x="0px" y="0px"
	 width="75.333px" height="70.667px" viewBox="0 0 75.333 70.667" enable-background="new 0 0 75.333 70.667" xml:space="preserve">
<g>
	<g>
		<path fill="#DE0C1C" d="M6.286,37.628c0,17.463,14.158,31.621,31.623,31.621V6.006C20.444,6.006,6.286,20.163,6.286,37.628z"/>
		<path fill="#DE0C1C" d="M69.532,37.628c0-17.465-14.16-31.623-31.623-31.623V69.25C55.372,69.25,69.532,55.091,69.532,37.628z"/>
		<g>
			<g>
				<path fill="#DE0C1C" d="M74.196,37.628C73.747,14.276,52.361-2.583,29.544,2.312C4.758,7.63-5.44,37.312,7.777,57.852
					c0.826,1.282,2.882,0.093,2.051-1.198C-2.693,37.196,6.717,11.48,28.893,4.928c21.539-6.365,42.511,11.04,42.928,32.701
					C71.851,39.158,74.225,39.16,74.196,37.628L74.196,37.628z"/>
			</g>
		</g>
		<g>
			<path fill="#FFFFFF" d="M8.424,37.628c0-16.259,13.225-29.485,29.484-29.485c16.258,0,29.484,13.227,29.484,29.485
				c0,16.258-13.226,29.483-29.483,29.483C21.649,67.112,8.424,53.887,8.424,37.628z M10.92,37.628
				c0,14.881,12.107,26.988,26.988,26.988s26.989-12.107,26.989-26.988c0-14.881-12.107-26.988-26.988-26.988
				C23.028,10.64,10.92,22.747,10.92,37.628z"/>
		</g>
		<g>
			<g>
				
					<rect x="33.553" y="25.068" transform="matrix(-0.9874 -0.1585 0.1585 -0.9874 79.0152 81.557)" fill="#F2F2F2" width="18.413" height="25.119"/>
				
					<rect x="37.711" y="27.55" transform="matrix(-0.9874 -0.1585 0.1585 -0.9874 83.5949 62.7374)" fill="#E52E48" width="13.177" height="0.971"/>
				<g>
					
						<rect x="38.016" y="31.872" transform="matrix(-0.9873 -0.1586 0.1586 -0.9873 81.619 70.8019)" fill="#E52E48" width="11.237" height="0.544"/>
					
						<rect x="37.657" y="34.137" transform="matrix(-0.9874 -0.1585 0.1585 -0.9874 80.5501 75.2433)" fill="#E52E48" width="11.237" height="0.544"/>
					
						<rect x="37.293" y="36.403" transform="matrix(-0.9874 -0.1585 0.1585 -0.9874 79.4657 79.688)" fill="#E52E48" width="11.235" height="0.545"/>
					
						<rect x="36.931" y="38.664" transform="matrix(-0.9874 -0.1585 0.1585 -0.9874 78.3878 84.1261)" fill="#E52E48" width="11.236" height="0.545"/>
					
						<rect x="36.567" y="40.93" transform="matrix(-0.9874 -0.1585 0.1585 -0.9874 77.3086 88.5697)" fill="#E52E48" width="11.239" height="0.545"/>
					
						<rect x="36.198" y="43.193" transform="matrix(-0.9873 -0.1587 0.1587 -0.9873 76.204 93.0132)" fill="#E52E48" width="11.234" height="0.544"/>
				</g>
			</g>
			<g>
				<rect x="21.979" y="25.832" fill="#E52E48" width="17.963" height="23.522"/>
				<path fill="#FFFFFF" d="M39.942,25.832H21.979v23.522h17.963V25.832z M24.694,29.09h12.52v1.077h-12.52V29.09z M37.217,45.498
					H24.694V44.86h12.523V45.498z M37.217,43.828H24.694V43.19h12.523V43.828z M37.217,42.158H24.694v-0.637h12.523V42.158z
					 M37.217,40.487H24.694v-0.636h12.523V40.487z M37.217,38.819H24.694v-0.638h12.523V38.819z M37.217,37.148H24.694v-0.636
					h12.523V37.148z M37.217,35.479H24.694v-0.638h12.523V35.479z M24.694,33.808v-0.635h12.523v0.635H24.694z"/>
			</g>
		</g>
		<circle fill="#DE0C1C" cx="9.374" cy="58.407" r="2.773"/>
	</g>
</g>
</svg>
