<?xml version="1.0" encoding="utf-8"?>
<!-- Generator: Adobe Illustrator 16.0.0, SVG Export Plug-In . SVG Version: 6.00 Build 0)  -->
<!DOCTYPE svg PUBLIC "-//W3C//DTD SVG 1.1//EN" "http://www.w3.org/Graphics/SVG/1.1/DTD/svg11.dtd">
<svg version="1.1" id="Layer_1" xmlns="http://www.w3.org/2000/svg" xmlns:xlink="http://www.w3.org/1999/xlink" x="0px" y="0px"
	 width="75.667px" height="79px" viewBox="0 0 75.667 79" enable-background="new 0 0 75.667 79" xml:space="preserve">
<g>
	<g>
		<g>
			<path fill="#DE0C1C" d="M5.843,39.857c0,17.395,14.047,31.51,31.418,31.62V8.24C19.89,8.349,5.843,22.46,5.843,39.857z"/>
			<path fill="#DE0C1C" d="M69.09,39.857c0-17.465-14.158-31.624-31.625-31.624c-0.068,0-0.135,0.004-0.203,0.006v63.237
				c0.068,0,0.135,0.004,0.203,0.004C54.93,71.48,69.09,57.322,69.09,39.857z"/>
			<g>
				<g>
					<g>
						<path fill="#DE0C1C" d="M37.466,3.572C22.639,3.858,9.643,12.505,3.851,26.199c-5.684,13.438-1.997,28.996,7.956,39.316
							c9.879,10.245,26.243,13.486,39.319,7.957c13.692-5.791,22.342-18.787,22.629-33.615c0.028-1.532-2.346-1.529-2.375,0
							c-0.263,13.598-7.951,25.305-20.252,31.057c-12.654,5.917-27.824,2.392-37.642-7.077c-10.022-9.665-12.41-25.032-7.077-37.64
							C11.653,13.796,24.253,6.201,37.466,5.946C38.997,5.917,38.999,3.542,37.466,3.572L37.466,3.572z"/>
					</g>
				</g>
				<circle fill="#DE0C1C" cx="37.762" cy="4.498" r="2.774"/>
			</g>
			<g>
				<path fill="#FFFFFF" d="M66.951,39.857c0,16.258-13.228,29.484-29.484,29.484C21.21,69.341,7.98,56.115,7.98,39.857
					c0-16.258,13.229-29.485,29.486-29.485C53.723,10.372,66.951,23.599,66.951,39.857z M64.453,39.857
					c0-14.883-12.104-26.987-26.986-26.987c-14.881,0-26.989,12.104-26.989,26.987c0,14.881,12.107,26.988,26.988,26.988
					C52.346,66.845,64.453,54.738,64.453,39.857z"/>
			</g>
			<g>
				<path fill="#FFFFFF" d="M26.103,28.681c-3.818,4.283-3.439,10.854,0.846,14.676c4.285,3.817,10.857,3.438,14.675-0.849
					c3.819-4.285,3.44-10.854-0.845-14.674C36.494,24.015,29.923,24.396,26.103,28.681z M39.361,40.494
					c-2.705,3.035-7.359,3.305-10.395,0.598c-3.037-2.705-3.303-7.357-0.6-10.395c2.705-3.035,7.359-3.305,10.395-0.598
					C41.797,32.804,42.066,37.459,39.361,40.494z"/>
				<path fill="#FFFFFF" d="M52.101,48.947c0.545,0.484,0.34,1.602-0.453,2.496l0,0c-0.797,0.893-1.886,1.223-2.429,0.736
					l-9.668-8.615c-0.545-0.484-0.342-1.604,0.455-2.494l0,0c0.795-0.894,1.883-1.223,2.429-0.738L52.101,48.947z"/>
			</g>
		</g>
	</g>
</g>
</svg>
