<?xml version="1.0" encoding="utf-8"?>
<!-- Generator: Adobe Illustrator 16.0.0, SVG Export Plug-In . SVG Version: 6.00 Build 0)  -->
<!DOCTYPE svg PUBLIC "-//W3C//DTD SVG 1.1//EN" "http://www.w3.org/Graphics/SVG/1.1/DTD/svg11.dtd">
<svg version="1.1" id="Layer_1" xmlns="http://www.w3.org/2000/svg" xmlns:xlink="http://www.w3.org/1999/xlink" x="0px" y="0px"
	 width="71.667px" height="78px" viewBox="0 0 71.667 78" enable-background="new 0 0 71.667 78" xml:space="preserve">
<g>
	<g>
		<path fill="#DE0C1C" d="M1.924,37.815c0,17.466,14.104,31.623,31.504,31.623V6.193C16.029,6.193,1.924,20.352,1.924,37.815z"/>
		<path fill="#DE0C1C" d="M64.933,37.815c0-17.464-14.105-31.622-31.504-31.622v63.245C50.828,69.438,64.933,55.281,64.933,37.815z"
			/>
		<g>
			<g>
				<path fill="#DE0C1C" d="M9.061,13.353C27.18-4.076,56.979,2.591,65.853,26.063c8.466,22.395-9.253,45.899-32.424,46.348
					c-1.529,0.03-1.532,2.403,0,2.375c25.311-0.49,42.779-25.336,34.713-49.354C59.509-0.276,26.277-6.502,7.382,11.674
					C6.277,12.737,7.958,14.414,9.061,13.353L9.061,13.353z"/>
			</g>
		</g>
		<g>
			<path fill="#FFFFFF" d="M33.429,67.301c-16.197,0-29.375-13.227-29.375-29.486c0-16.257,13.177-29.484,29.375-29.484
				c16.195,0,29.374,13.228,29.374,29.484C62.802,54.074,49.625,67.301,33.429,67.301z M33.429,10.828
				c-14.826,0-26.887,12.106-26.887,26.987c0,14.882,12.061,26.99,26.887,26.99c14.824,0,26.886-12.107,26.886-26.99
				C60.315,22.935,48.253,10.828,33.429,10.828z"/>
		</g>
		<g>
			<g>
				<path fill="#FFFFFF" d="M41.994,27.582l0.863-1.616c0.374-0.695,0.021-1.611-0.784-2.046l-2.749-1.484
					c-0.81-0.435-1.764-0.225-2.136,0.471l-0.866,1.616L41.994,27.582z"/>
				<polygon fill="#FFFFFF" points="35.732,25.629 24.722,46.193 30.393,49.253 41.402,28.688 				"/>
			</g>
			<polygon fill="#FFFFFF" points="29.931,50.379 24.506,53.423 24.042,47.202 			"/>
		</g>
		
			<line fill="none" stroke="#FFFFFF" stroke-width="0.8322" stroke-miterlimit="10" x1="24.722" y1="55.627" x2="45.96" y2="55.627"/>
		
			<line fill="none" stroke="#FFFFFF" stroke-width="0.8322" stroke-miterlimit="10" x1="30.784" y1="53.423" x2="52.022" y2="53.423"/>
		<ellipse fill="#DE0C1C" cx="33.742" cy="73.598" rx="2.763" ry="2.773"/>
	</g>
</g>
</svg>
